<svg width="183" height="83" viewBox="0 0 183 83" fill="none" xmlns="http://www.w3.org/2000/svg">
<path d="M101.855 32.5812C102.255 33.2895 102.352 33.7944 102.753 34.5027C104.451 37.8408 105.689 41.5293 106.468 45.5683C106.954 48.0927 107.186 50.666 106.655 53.3865C106.438 54.9991 105.966 56.6608 105.446 58.07C103.063 63.5035 97.2983 66.4469 91.8212 65.4076C86.3442 64.3684 83.1306 60.0133 83.3325 54.2146C83.4036 51.8446 84.0321 49.6291 85.1694 47.3155C87.1409 42.4849 89.9729 38.0122 93.714 34.1497C94.38 33.4978 95.0459 32.8459 95.7118 32.1939C95.3601 31.7381 95.2629 31.2332 94.9112 30.7774C92.8012 28.0422 90.534 25.8609 88.2669 23.6796C84.4846 20.4813 80.7023 17.2829 76.4598 14.435C68.3266 9.19498 59.2618 5.96713 49.2655 4.7514C41.1959 3.94988 32.9579 5.01345 24.5516 7.94211C19.6096 9.6797 14.2074 11.7677 8.90248 14.3607C6.91594 15.0052 5.23244 15.8532 3.54893 16.7012C2.78575 16.8482 2.02255 16.9952 1.51376 17.0933C1.25936 17.1423 0.907696 16.6864 0.85906 16.434C0.810424 16.1816 0.967547 15.6277 1.22194 15.5787C1.88786 14.9267 2.85681 14.4782 3.52273 13.8263C8.73036 10.7285 14.2897 8.08659 19.6919 5.99854C25.8572 3.76345 32.0712 1.78079 38.274 1.10933C48.087 0.00411311 57.3201 1.36688 66.0819 4.39131C70.893 6.08244 75.547 8.32747 79.7894 11.1754C83.4258 13.6165 86.8564 16.359 90.2871 19.1015C93.4147 21.6406 96.0821 24.5302 98.5438 27.7212C98.8955 28.1771 99.1985 28.3805 99.5502 28.8363C100.979 28.0374 102.36 26.986 103.534 26.236C109.711 22.6898 116.179 20.6581 122.685 20.19C132.292 19.3863 141.369 21.3029 149.816 25.4351C159.73 30.332 168.204 37.3391 174.728 46.5543C177.542 50.2012 179.689 54.4999 181.073 58.9458C183.101 65.3621 183.602 72.0725 182.226 78.6211C181.911 79.7289 181.852 80.7876 180.98 81.741C180.774 82.0425 180.52 82.0915 180.217 81.8881C179.962 81.9371 179.865 81.4322 179.865 81.4322C179.816 81.1798 179.974 80.6259 179.925 80.3734C180.527 75.2831 180.112 70.3887 179.139 65.34C177.766 59.583 175.17 54.3234 171.908 49.7158C163.722 38.7262 153.527 31.0035 141.118 26.8492C133.52 24.386 125.753 23.7879 117.867 25.3073C112.779 26.2876 108.14 28.2286 103.441 31.2284C102.981 31.5789 102.521 31.9293 101.855 32.5812ZM98.2221 35.6374C97.762 35.9879 97.5076 36.0369 97.5076 36.0369C93.5121 39.9484 90.4257 44.4701 88.8058 49.7566C88.2858 51.1658 88.0688 52.7784 88.0576 54.0896C88.2783 57.9742 90.8485 60.3589 94.556 60.43C96.9428 60.4938 98.8321 59.3444 100.321 57.4866C100.938 56.5823 101.507 55.4255 101.821 54.3177C102.293 52.6561 102.461 50.791 102.375 48.9749C102.105 44.8379 100.867 41.1494 99.3258 37.2574C99.0227 37.054 98.6224 36.3457 98.2221 35.6374Z" fill="green"/>
</svg>
