<svg width="23" height="26" viewBox="0 0 23 26" fill="none" xmlns="http://www.w3.org/2000/svg">
<path d="M5.80721 18.7744C6.87343 18.8308 7.93965 18.8872 9.05451 19.196C12.3018 19.6176 15.2947 20.0881 18.542 20.5097C19.3539 20.6151 19.9113 20.7695 20.4687 20.9239C21.0261 21.0784 21.6322 21.4852 21.9839 21.9411C22.6386 22.6003 22.7845 23.3576 22.4702 24.4654C22.1074 25.3208 21.6472 25.6712 20.6296 25.8673C16.1103 25.6908 11.1795 26.1172 6.25993 25.2324C5.4481 25.127 4.63627 25.0216 3.77581 24.6637C1.14579 23.3378 -0.0551287 21.2129 0.221698 18.5415C0.330186 17.7352 0.48731 17.1813 0.644434 16.6274C2.26431 11.341 5.04768 6.61578 8.18272 2.34646C8.84864 1.69454 9.51456 1.04263 9.97471 0.692164C10.4835 0.594136 10.9923 0.496108 11.5984 0.902954C12.2044 1.3098 12.3017 1.81467 12.1446 2.36856C11.7331 2.97146 11.3702 3.8268 10.9587 4.4297C9.97849 6.18939 8.99833 7.94908 8.01816 9.70877C7.54679 11.3704 6.77238 12.8287 6.30101 14.4903C5.98676 15.5981 5.46675 17.0073 5.80721 18.7744Z" fill="black"/>
</svg>
