<svg width="137" height="128" viewBox="0 0 137 128" fill="none" xmlns="http://www.w3.org/2000/svg">
<path d="M18.932 2.86041C23.9869 1.56372 28.9917 1.02955 34.0959 1.04231C37.4877 0.990046 41.0293 0.722185 44.4542 0.85223C48.6108 0.849122 52.867 1.39294 57.0065 2.33466C67.2806 4.79677 77.2553 7.69007 86.8803 11.7771C100.163 17.2703 111.648 25.3507 121.786 35.3715C126.589 39.9594 130.212 45.3272 132.836 51.4417C134.481 55.2861 135.61 59.4126 136.157 63.4567C136.356 64.5505 136.222 65.8933 136.422 66.9871C136.438 68.1142 136.454 69.2414 136.653 70.3352C137.083 76.8492 136.748 83.314 134.484 89.5648C134.251 90.3606 133.835 91.1897 133.602 91.9855C131.022 99.6123 126.896 106.014 121.324 111.736C116.168 116.63 110.513 120.861 104.26 123.883C99.4043 126.273 94.4659 127.172 89.1787 127.193C83.9247 127.395 78.8375 126.438 74.0496 125.049C65.0558 122.354 56.894 118.001 49.2647 112.42C41.6355 106.84 34.8212 100.546 28.7887 93.3568C23.7532 87.4927 18.8675 81.4131 14.6802 75.0179C10.4929 68.6228 7.33665 61.6634 5.21147 54.1396C4.18206 50.56 3.33556 46.9471 2.67196 43.3009C1.89182 40.0526 1.29457 36.7711 0.880233 33.4562C0.532253 30.506 0.367177 27.5225 0.2021 24.539C0.0370243 21.5554 0.453829 18.6544 1.08673 15.9023C2.53542 10.3649 5.92887 6.16871 10.8349 3.01565C12.5312 1.95353 14.3602 1.62065 16.2556 1.65238C17.1701 1.48594 17.3862 1.63496 18.932 2.86041ZM75.0031 110.561C74.9699 110.379 74.9367 110.196 75.0031 110.561C74.9367 110.196 74.9699 110.379 75.0031 110.561C75.7177 111.373 76.4655 112.367 77.2133 113.361C77.2464 113.543 77.6123 113.476 77.7952 113.443C76.7317 111.753 76.4493 111.24 75.4021 110.677C75.3689 110.494 75.2192 110.71 75.0031 110.561ZM133.19 82.4547C132.159 83.0191 131.776 84.0305 131.393 85.0419C131.16 85.8377 131.193 86.02 131.426 87.2962C131.775 86.1025 132.158 85.091 132.574 84.2619C132.84 83.6484 133.106 83.0349 133.19 82.4547C133.157 82.2724 133.19 82.4547 133.19 82.4547C132.974 82.3057 132.974 82.3057 133.123 82.0901C133.157 82.2724 133.157 82.2724 133.19 82.4547ZM61.6034 107.538C61.5703 107.355 61.5371 107.173 61.5371 107.173C61.5371 107.173 61.5703 107.355 61.6034 107.538C62.6005 108.863 63.2649 110.437 64.4449 111.729C64.5946 111.514 64.7775 111.48 64.7775 111.48C64.6286 109.624 63.2989 108.548 61.9692 107.471C61.7532 107.322 61.6034 107.538 61.6034 107.538ZM15.7886 5.31597C15.2731 5.59815 14.9073 5.66472 14.5747 5.91361C12.2795 7.83812 10.1672 9.72934 8.52022 12.1009C7.43898 13.4278 6.78991 15.0527 6.35692 16.8266C4.90822 22.364 4.59012 27.884 5.80161 33.5023C6.33249 36.4192 7.41208 39.2363 8.49168 42.0534C10.5845 47.3229 13.3426 52.0947 16.982 56.5177C19.6243 59.6154 22.4164 62.4974 25.5411 65.1307C31.1755 70.1323 36.7766 74.9517 42.411 79.9534C43.7407 81.0298 45.1035 82.2885 46.4332 83.365C54.1952 89.6745 62.7058 94.9061 72.1148 98.8441C79.0634 101.723 86.4451 102.828 93.8769 103.171C98.2496 103.317 102.573 102.153 106.365 100.145C111.37 97.5384 115.811 93.905 120.035 90.1226C125.89 84.9134 129.434 78.4296 131.715 71.234C132.414 68.8466 132.714 66.3434 132.432 63.7578C131.554 57.8907 129.644 52.5878 126.487 47.7003C123.861 43.6578 120.571 40.1131 116.947 36.8172C106.975 27.708 95.4727 20.5724 82.8718 15.7085C75.3745 12.9294 67.7605 10.5482 59.9969 8.38259C54.4443 6.94465 48.7751 5.90461 43.0889 5.80941C37.2198 5.74749 31.3176 5.50327 25.4817 5.62367C22.4557 5.60935 19.3965 5.41273 16.7857 6.64129C16.5696 6.49227 16.3535 6.34325 16.3203 6.16094C16.0711 5.82961 16.0379 5.6473 15.7886 5.31597ZM48.0039 105.492C47.6883 104.797 47.4058 104.283 47.1234 103.769C44.4649 99.5444 42.1389 95.0707 40.0291 90.746C38.8993 88.6914 37.5867 86.6702 36.1243 84.8645C35.9082 84.7155 35.6921 84.5665 35.2599 84.2684C35.3425 85.7602 36.2732 86.7209 36.8049 87.5658C38.6824 90.6144 40.56 93.6629 42.2547 96.7447C43.1352 98.468 44.4147 100.307 44.5968 102.346C44.6631 102.71 44.7295 103.075 44.9456 103.224C45.8431 104.002 46.7738 104.963 48.0039 105.492ZM108.804 110.436C108.588 112.359 108.787 113.453 109.418 114.845C110.965 113.998 112.145 113.219 113.443 112.041C112.678 111.992 111.73 111.976 111.115 111.711C110.101 111.33 109.453 110.883 108.804 110.436ZM57.3021 95.3246C58.4319 97.3791 59.7113 99.2181 61.5396 100.957C61.2741 99.4987 61.1082 98.5871 60.876 97.311C59.6458 96.7815 58.5654 96.0364 57.3021 95.3246ZM52.4251 109.02C53.9045 109.881 55.201 110.775 56.4975 111.669C56.7136 111.818 57.1789 112.298 57.4784 111.867C56.2653 110.393 54.9024 109.134 53.6892 107.66C53.6561 107.477 53.4732 107.511 53.2571 107.362C53.0742 107.395 53.0742 107.395 52.8581 107.246C52.7416 107.644 52.4753 108.257 52.4251 109.02ZM69.2505 110.101C68.1046 106.92 67.0744 105.412 65.595 104.551C65.6937 107.17 67.4555 108.544 69.2505 110.101ZM39.351 81.8287C41.0618 86.0377 42.1252 87.7276 44.1032 89.2511C43.7875 88.5552 43.5051 88.0415 43.2227 87.5279C42.6578 86.5006 41.91 85.5066 41.7109 84.4128C41.3289 83.3522 40.6143 82.5405 39.351 81.8287ZM71.3587 118.57C71.4421 117.99 71.3757 117.625 71.3757 117.625C70.6611 116.813 69.9797 116.184 69.448 115.339C69.4148 115.157 69.049 115.223 68.8661 115.257C69.032 116.168 69.1979 117.08 69.1809 118.024C69.7628 118.107 70.5607 118.338 71.3587 118.57ZM118.332 107.76C118.665 107.512 118.848 107.478 118.998 107.263C119.48 106.798 119.962 106.334 120.412 105.687C119.979 105.389 119.763 105.24 119.331 104.942C117.95 106.7 117.95 106.7 118.332 107.76ZM10.0317 57.7826C10.1984 56.6222 10.1984 56.6222 8.75299 53.8717C9.01844 55.3302 9.43361 56.573 10.0317 57.7826ZM102.75 116.624C102.517 117.419 101.852 117.917 102.533 118.547C103.049 118.264 103.381 118.015 103.897 117.733C103.431 117.253 102.999 116.955 102.75 116.624ZM85.9781 106.492C86.7259 107.486 86.7259 107.486 87.5902 108.082C87.4907 107.535 87.4243 107.17 87.5408 106.772C87.1087 106.474 86.6433 105.994 85.9781 106.492ZM101.773 106.066C102.122 106.944 102.587 107.424 103.635 107.987C103.652 107.042 103.519 106.313 103.02 105.65C102.472 105.75 102.139 105.999 101.773 106.066ZM60.6533 113.738C61.1518 114.4 61.983 114.814 63.1467 114.979C62.6482 114.316 62.3658 113.803 62.1165 113.471C61.6511 112.991 61.1024 113.091 60.6533 113.738ZM87.2526 120.763C86.5542 121.078 86.0055 121.178 85.4568 121.278C86.6869 121.807 86.6869 121.807 87.2526 120.763ZM23.844 68.2648C23.8772 68.4471 23.7274 68.6627 23.9104 68.6294C24.1264 68.7784 24.3757 69.1097 24.5918 69.2587C24.5586 69.0764 24.7415 69.0431 24.7083 68.8608C24.4591 68.5295 24.243 68.3805 23.9937 68.0492C24.0269 68.2315 24.0269 68.2315 23.844 68.2648ZM92.4905 119.433C92.6402 119.217 92.7899 119.001 92.7567 118.819C92.6904 118.454 92.2582 118.156 92.1085 118.372C91.9588 118.588 91.9919 118.77 92.0251 118.952C91.8754 119.168 92.0583 119.135 92.4905 119.433ZM133.341 78.0952C133.225 78.4931 133.108 78.891 133.141 79.0733L133.357 79.2223C133.507 79.0067 133.657 78.7911 133.59 78.4265C133.74 78.2109 133.524 78.0619 133.341 78.0952ZM97.798 110.179C97.5819 110.03 97.5819 110.03 97.3658 109.881C97.2161 110.097 97.0663 110.312 97.0663 110.312C97.0995 110.495 97.2824 110.461 97.4985 110.611C97.6814 110.577 97.6482 110.395 97.798 110.179ZM126.533 97.7923L126.716 97.759C126.866 97.5434 126.799 97.1788 126.949 96.9632L126.766 96.9965C126.617 97.2121 126.467 97.4277 126.533 97.7923C126.533 97.7923 126.35 97.8256 126.533 97.7923ZM75.4045 104.461C75.4377 104.643 75.6206 104.61 75.6538 104.792C75.8367 104.759 75.8367 104.759 75.9864 104.543C75.9532 104.361 75.7703 104.394 75.7372 104.212C75.5543 104.245 75.5543 104.245 75.4045 104.461Z" fill="#86B472"/>
</svg>
