<svg width="268" height="136" viewBox="0 0 268 136" fill="none" xmlns="http://www.w3.org/2000/svg">
<path d="M187.626 56.4578C187.527 55.9109 187.244 55.3973 187.178 55.0326C186.796 53.9721 187.212 53.143 187.811 52.2806C188.293 51.8161 188.809 51.5339 189.108 51.1027C189.557 50.4559 190.222 49.9582 190.456 49.1624C190.905 48.5156 190.622 48.0019 189.824 47.7705C189.026 47.539 188.045 47.3408 187.214 46.9271C186.815 46.8113 186.233 46.7289 185.834 46.6131C184.604 46.0836 184.106 45.421 184.272 44.2606C184.356 43.6803 184.439 43.1001 184.373 42.7355C184.39 41.7907 184.107 41.277 183.243 40.681C182.412 40.2672 181.764 39.8201 180.932 39.4064C179.669 38.6945 178.406 37.9827 177.292 37.0553C174.882 35.2338 174.052 32.748 174.469 29.847C174.719 28.1063 175.501 27.2106 177.363 27.0601C178.46 26.8603 179.558 26.6606 180.688 26.6432C182.766 26.6416 184.928 26.0599 186.874 25.3291C187.755 24.9803 188.852 24.7806 189.767 24.6142C191.413 24.3146 192.793 24.6285 193.94 25.7382C194.405 26.2185 194.837 26.5166 195.303 26.9969C197.629 29.3987 200.638 30.3578 204.03 30.3056C205.344 30.2549 206.474 30.2374 207.821 30.369C210.481 30.4499 211.661 31.7419 211.876 33.9629C211.909 34.1452 211.909 34.1452 211.943 34.3276C212.175 35.6037 212.557 36.6643 213.454 37.4427C213.704 37.774 214.136 38.072 214.385 38.4034C215.598 39.8777 215.498 41.4028 214.018 42.6139C213.685 42.8628 213.169 43.1449 212.654 43.4271C211.989 43.9249 211.29 44.2404 210.592 44.5558C210.076 44.838 209.594 45.3025 209.295 45.7337C208.579 46.994 207.581 47.7406 206.4 48.5206C205.403 49.2672 204.405 50.0139 203.407 50.7605C200.413 53.0005 198.284 55.8366 196.803 59.1197C196.653 59.3353 196.503 59.5509 196.936 59.8489C197.601 59.3511 198.299 59.0357 198.782 58.5712C201.775 56.3312 204.769 54.0912 207.945 51.818C211.604 49.0802 214.864 46.2268 217.592 42.5283C218.94 40.588 220.753 39.1279 222.566 37.6679C222.898 37.419 223.231 37.1701 223.53 36.739C223.547 35.7941 223.049 35.1315 222.367 34.5021C221.869 33.8394 221.37 33.1768 220.905 32.6964C220.589 32.0005 220.274 31.3045 220.906 30.6245C221.87 29.6955 221.854 28.5683 221.838 27.4412C221.855 26.4964 221.905 25.7339 221.922 24.789C222.172 23.0484 223.137 22.1194 224.75 21.6375C225.116 21.5709 225.664 21.4711 226.03 21.4045C226.795 21.4536 227.71 21.2872 228.474 21.3364C230.004 21.4347 231.035 20.8703 231.967 19.759C232.599 19.079 233.198 18.2166 233.647 17.5698C234.844 15.845 235.859 14.1535 237.057 12.4287C238.554 10.2728 240.085 8.29911 241.798 6.29216C243.029 4.7497 244.326 3.57185 245.84 2.54302C246.838 1.79636 247.869 1.23202 249.149 0.999C251.344 0.59954 253.039 1.60939 253.255 3.83038C253.487 5.10654 253.353 6.44928 253.037 7.82531C252.287 10.9753 250.956 14.0428 249.159 16.6299C247.662 18.7859 246.165 20.9419 244.635 22.9156C244.485 23.1311 243.969 23.4133 244.285 24.1093C245.649 23.296 247.228 22.6318 248.592 21.8186C251.17 20.4077 253.531 18.8478 256.076 17.2547C257.107 16.6903 258.288 15.9104 259.352 15.5283C260.05 15.2129 260.749 14.8974 261.696 14.9133C263.559 14.7627 264.921 16.0214 264.705 17.9444C264.654 18.7069 264.388 19.3204 263.939 19.9672C263.457 20.4317 263.007 21.0785 262.492 21.3606C260.829 22.6051 259.016 24.0651 257.17 25.3428C256.355 26.0562 255.324 26.6205 254.326 27.3672C253.661 27.865 253.178 28.3294 253.012 29.4899C253.228 29.6389 253.477 29.9702 253.876 30.0859C254.74 30.682 255.754 31.0625 256.619 31.6586C257.666 32.2214 258.563 32.9998 259.095 33.8447C260.308 35.3191 260.208 36.8441 258.977 38.3866C258.528 39.0334 257.863 39.5312 257.197 40.0289C254.087 42.6668 250.478 44.642 246.554 45.9213C242.63 47.2006 238.805 49.0268 234.98 50.853C226.333 55.252 217.868 59.6178 209.47 64.3481C206.377 66.0412 203.068 67.5852 199.974 69.2782C198.245 70.158 196.665 70.8223 194.936 71.7021C194.603 71.951 194.27 72.1998 193.938 72.4487C194.536 73.6583 195.284 74.6523 195.849 75.6796C196.413 76.7068 196.978 77.7341 197.576 78.9437C197.942 78.8771 198.275 78.6282 198.641 78.5617C200.287 78.2621 201.717 77.8135 203.363 77.5139C207.819 77.0796 212.158 77.0432 216.564 77.3714C219.806 77.5347 223.115 78.0627 226.39 78.4083C234.32 79.4135 242.184 80.0541 250.198 80.4791C252.094 80.5108 253.806 80.5758 256.001 80.1764C255.752 79.845 255.502 79.5137 255.286 79.3647C254.239 78.8019 253.375 78.2058 252.327 77.643C251.895 77.345 251.496 77.2292 251.064 76.9312C250.2 76.3351 250.217 75.3903 251.032 74.6769C251.364 74.428 251.88 74.1459 252.246 74.0793C252.395 73.8637 252.761 73.7971 253.094 73.5482C252.113 73.35 251.348 73.3009 250.733 73.0361C249.503 72.5066 249.121 71.4461 249.87 70.3681C250.136 69.7546 250.618 69.2901 251.317 68.9746C252.315 68.228 253.495 67.448 254.493 66.7014C254.643 66.4858 254.976 66.2369 255.125 66.0213C254.327 65.7898 253.712 65.5251 253.097 65.2603C251.867 64.7308 251.269 63.5212 251.801 62.2942C252.068 61.6807 252.517 61.0339 252.966 60.3871C253.898 59.2759 254.862 58.3469 255.794 57.2356C257.391 55.6266 258.771 53.8685 260.335 52.0772C261.749 50.5014 262.73 48.6276 263.496 46.6048C263.646 46.3892 263.613 46.2069 263.696 45.6267C262.149 46.4732 260.786 47.2864 259.605 48.0664C253.884 51.9328 249.243 56.5444 246.647 63.044C246.264 64.0554 245.665 64.9178 245.066 65.7802C243.569 67.9361 241.225 68.5512 238.648 67.8901C238.033 67.6253 237.418 67.3606 236.803 67.0958C235.971 66.6821 235.173 66.4506 234.193 66.2524C233.428 66.2033 232.813 65.9385 232.198 65.6738C231.799 65.558 231.184 65.2933 230.751 64.9953C229.737 64.6148 229.189 64.7146 228.623 65.7593C228.357 66.3728 228.09 66.9863 227.824 67.5998C227.292 68.8268 226.294 69.5735 224.797 69.6575C223.883 69.8239 222.752 69.8414 221.805 69.8255C217.615 69.6463 213.525 70.014 209.351 70.962C207.555 71.4771 205.942 71.959 204.113 72.2919C203.199 72.4584 202.467 72.5915 201.553 72.758C201.187 72.8245 200.788 72.7088 200.605 72.7421C200.206 72.6264 199.923 72.1127 200.256 71.8638C200.406 71.6482 200.738 71.3994 200.888 71.1838C201.587 70.8683 202.285 70.5528 203.017 70.4197C205.178 69.8379 207.49 69.0406 209.684 68.6411C213.459 67.5774 217.333 67.0607 221.34 67.2732C222.105 67.3223 222.836 67.1892 223.601 67.2383C224.549 67.2542 225.031 66.7897 225.447 65.9606C225.714 65.3471 225.98 64.7336 226.246 64.1201C227.444 62.3953 229.389 61.6645 231.268 62.6411C231.667 62.7568 232.099 63.0549 232.498 63.1706C233.08 63.253 233.695 63.5178 234.244 63.4179C235.341 63.2182 236.355 63.5987 237.369 63.9792C237.984 64.2439 238.416 64.542 238.998 64.6244C240.378 64.9383 241.077 64.6229 241.609 63.3959C242.025 62.5668 242.408 61.5553 242.608 60.5772C243.191 58.5877 244.355 56.6806 245.553 54.9558C250.111 48.8525 256.231 45.1018 262.783 41.6492C263.116 41.4003 263.482 41.3337 263.847 41.2671C264.213 41.2006 264.579 41.134 264.945 41.0674C266.657 41.1324 267.588 42.0931 267.488 43.6182C267.471 44.563 267.271 45.5411 266.888 46.5525C265.423 50.9628 262.695 54.6612 259.534 58.0616C258.42 59.2062 257.488 60.3175 256.341 61.2797C256.008 61.5286 255.892 61.9265 255.592 62.3577C256.174 62.4401 256.756 62.5226 257.371 62.7873C257.986 63.0521 258.751 63.1013 259.183 63.3993C260.629 64.0778 260.712 65.5696 259.78 66.6808C259.481 67.112 258.965 67.3942 258.45 67.6764C257.086 68.4896 255.723 69.3029 254.359 70.1161C254.026 70.365 253.478 70.4648 253.394 71.0451C253.976 71.1275 254.375 71.2432 254.957 71.3257C255.722 71.3748 256.669 71.3907 257.467 71.6222C258.049 71.7046 258.515 72.1849 258.797 72.6986C258.897 73.2455 258.597 73.6767 257.932 74.1745C257.416 74.4567 257.084 74.7055 256.535 74.8054C255.837 75.1209 255.105 75.254 254.224 75.6028C253.858 75.6694 253.525 75.9182 253.193 76.1671C254.24 76.7299 255.287 77.2927 256.151 77.8888C256.8 78.3358 257.481 78.9652 257.98 79.6279C258.511 80.4728 258.311 81.451 257.43 81.7997C256.915 82.0819 256.183 82.215 255.451 82.3482C251.943 82.7984 248.368 82.8839 244.727 82.6048C237.478 82.229 230.346 81.4553 222.997 80.5326C216.996 79.7414 211.093 79.4972 205.075 79.6509C203.362 79.5858 201.533 79.9187 199.704 80.2516C199.155 80.3515 198.39 80.3023 197.941 80.9491C197.691 82.6897 197.807 84.3638 197.341 85.9554C196.791 88.1273 196.209 90.1168 195.476 92.3219C194.394 95.7208 192.448 98.5235 189.853 100.879C185.329 105.093 180.273 108.462 174.37 110.289C169.714 111.702 165.241 113.081 160.552 114.311C154.799 115.923 148.913 116.806 143.06 117.871C125.468 120.885 107.66 123.749 90.0348 126.58C80.1249 128.195 70.3646 129.595 60.4547 131.21C47.8012 133.325 35.0813 135.075 22.3453 135.698C18.2219 135.883 14.2482 135.853 10.175 135.276C8.61224 134.995 7.04947 134.714 5.45352 134.252C4.25657 133.904 3.20933 133.342 2.345 132.745C0.649512 131.736 0.317713 129.913 1.33259 128.221C1.78176 127.574 2.23092 126.927 2.68009 126.281C3.46188 125.385 4.42659 124.456 5.42447 123.709C7.53677 121.818 9.89832 120.258 12.5091 119.03C16.6666 116.955 20.9737 114.664 25.1643 112.771C36.5221 107.691 47.6638 102.461 58.7724 97.0488C68.4841 92.2677 78.4451 87.818 88.1899 83.2192C93.2287 80.7954 98.4835 78.5205 103.805 76.6104C111.587 73.6872 119.552 70.7307 127.301 67.6253C134.352 64.8353 141.469 62.4099 148.868 60.4981C152.094 59.5343 155.387 58.9351 158.895 58.485C160.757 58.3344 162.736 57.7859 164.598 57.6353C167.741 57.2518 171.033 56.6526 174.308 56.9982C175.456 56.0359 175.639 56.0027 176.985 56.1343C180.294 56.6622 183.153 57.837 185.63 60.0231C186.095 60.5035 186.743 60.9505 187.425 61.5799C188.24 58.7946 188.174 58.4299 187.626 56.4578ZM6.75167 131.002C9.36167 131.845 12.055 132.108 14.8981 132.156C22.1139 132.349 29.3135 131.416 36.5462 130.665C44.6935 129.747 52.7744 128.464 61.0051 126.966C71.7963 125.002 82.5043 123.619 93.3287 121.837C113.149 118.606 133.002 115.558 152.938 111.93C160.62 110.532 168.136 108.222 175.619 105.73C180.973 104.002 185.297 100.767 189.09 96.6861C191.319 94.397 192.5 91.5451 193.466 88.5442C194.082 86.7369 194.515 84.963 194.732 83.0401C194.949 81.1171 194.617 79.294 193.586 77.7864C191.21 74.0752 189.017 70.3307 186.974 66.3706C185.562 63.8024 183.667 61.6987 181.14 60.2751C179.661 59.4143 178.215 58.7357 176.735 57.8749C176.403 58.1238 176.103 58.555 175.771 58.8039C175.438 59.0528 175.039 58.937 174.673 59.0036C174.124 59.1035 173.576 59.2033 172.844 59.3365C171.747 59.5362 170.832 59.7027 169.735 59.9024C168.089 60.202 166.625 60.4683 164.979 60.7679C163.882 60.9676 162.784 61.1673 161.687 61.3671C158.179 61.8172 154.737 62.632 151.328 63.6291C140.952 66.836 131.074 70.7056 121.014 74.6084C120.648 74.675 120.132 74.9571 119.617 75.2393C120.115 75.902 120.581 76.3823 121.079 77.045C121.545 77.5253 121.827 78.039 122.143 78.7349C122.924 79.9112 123.555 81.3031 123.82 82.7616C123.92 83.3085 123.837 83.8887 123.753 84.4689C123.67 85.0491 122.938 85.1823 122.506 84.8842C122.074 84.5862 121.791 84.0726 121.509 83.5589C120.628 81.8357 119.748 80.1125 118.685 78.4225C118.153 77.5776 117.837 76.8816 117.455 75.8211C116.907 75.9209 116.391 76.2031 115.842 76.303C106.447 79.708 97.1514 83.66 88.1049 87.9433C79.4243 92.1601 70.6773 96.0122 61.9967 100.229C55.561 103.284 48.9425 106.372 42.4074 108.88C41.8918 109.162 41.526 109.228 40.8276 109.544C41.2929 110.024 41.7251 110.322 42.1905 110.803C42.6226 111.101 42.9051 111.614 43.1875 112.128C43.47 112.641 43.7524 113.155 44.2177 113.635C44.5002 114.149 44.7494 114.48 45.0319 114.994C45.3143 115.508 45.5968 116.021 45.8792 116.535C46.7597 118.258 47.2744 120.048 47.4233 121.904C47.5892 122.816 47.3562 123.612 47.306 124.374C47.2226 124.954 46.7071 125.237 46.3413 125.303C45.9755 125.37 45.5433 125.072 45.4769 124.707C45.4106 124.343 45.1613 124.011 45.095 123.647C44.5803 121.857 44.0655 120.067 43.3679 118.31C42.6703 116.554 41.9727 114.797 41.0922 113.074C40.7434 112.196 40.2117 111.351 39.68 110.506C39.4971 110.539 39.4639 110.357 39.281 110.39C32.4464 113.329 25.3957 116.119 18.6275 119.423C16.5654 120.552 14.5033 121.68 12.4411 122.809C10.379 123.938 8.38327 125.431 6.81969 127.222C6.00471 127.936 5.37263 128.616 5.023 129.81C4.97282 130.572 5.9537 130.77 6.75167 131.002ZM248.898 4.81162C247.717 5.59156 246.57 6.55381 245.605 7.48278C244.041 9.27413 242.478 11.0655 241.13 13.0059C239.933 14.7306 238.735 16.4554 237.537 18.1802C236.605 19.2915 235.89 20.5518 234.959 21.663C233.395 23.4544 231.665 24.3342 229.221 24.4023C228.274 24.3865 227.542 24.5196 226.594 24.5037C226.411 24.537 226.046 24.6036 225.896 24.8192C225.447 25.466 225.579 26.1952 225.529 26.9578C225.645 28.6318 225.545 30.1569 224.68 31.6327C224.962 32.1464 225.394 32.4444 225.494 32.9914C225.809 33.6873 226.341 34.5323 226.657 35.2282C227.171 37.018 226.888 38.5764 225.408 39.7875C225.075 40.0364 224.743 40.2853 224.26 40.7497C222.78 41.9609 221.483 43.1387 220.435 44.6479C217.706 48.3463 214.297 51.4154 210.638 54.1532C206.463 57.1731 202.505 60.342 198.331 63.3619C197 64.3575 195.853 65.3197 194.705 66.282C194.04 66.7797 193.225 67.4931 192.061 67.3282C192.227 68.2398 192.908 68.8691 193.257 69.7474C193.59 69.4985 193.773 69.4652 193.956 69.4319C195.768 67.9719 198.013 66.8099 200.042 65.4989C203.984 63.2748 207.742 61.084 211.683 58.8599C214.411 57.2334 217.138 55.607 219.899 54.1628C224.904 51.5567 229.91 48.9505 234.882 46.1621C238.674 44.1536 242.349 42.543 246.523 41.595C250.33 40.7137 253.756 38.7717 256.899 36.3162C257.082 36.2829 257.232 36.0673 257.382 35.8517C257.565 35.8184 257.532 35.6361 257.498 35.4538C257.183 34.7578 256.535 34.3108 255.886 33.8637C254.839 33.3009 253.975 32.7048 252.927 32.1421C250.617 30.8674 250.069 28.8953 251.533 26.5571C251.949 25.728 252.764 25.0146 253.396 24.3345C254.211 23.6211 255.242 23.0568 256.057 22.3434C257.388 21.3479 258.901 20.3191 260.232 19.3235C259.799 19.0255 259.467 19.2744 259.317 19.49C256.922 20.8675 254.561 22.4274 252.166 23.805C248.89 25.5313 245.797 27.2244 242.521 28.9507C242.005 29.2329 241.49 29.5151 241.124 29.5816C239.661 29.8479 238.514 28.7382 238.797 27.1799C239.03 26.3841 239.296 25.7706 239.563 25.1571C240.461 23.8635 241.359 22.5699 242.258 21.2763C243.605 19.3359 245.169 17.5446 246.516 15.6042C248.196 13.415 249.261 10.961 250.11 8.35792C250.46 7.16421 250.777 5.78818 250.727 4.47873C249.929 4.24727 249.231 4.56273 248.898 4.81162ZM179.155 34.8328C180.02 35.4289 180.884 36.0249 181.748 36.621C182.613 37.2171 183.66 37.7799 184.491 38.1937C186.585 39.3193 187.25 40.8934 187.099 43.181C187.133 43.3633 186.983 43.5789 187.016 43.7612C187.049 43.9435 187.049 43.9435 187.116 44.3082C187.581 44.7885 188.13 44.6886 188.745 44.9534C189.543 45.1849 190.524 45.383 191.355 45.7968C192.768 46.293 193.549 47.4693 193.448 48.9944C193.315 50.3371 192.749 51.3818 191.784 52.3108C191.152 52.9909 190.337 53.7042 189.705 54.3843C190.037 56.2074 191.067 57.715 190.85 59.638C190.783 61.3453 190.899 63.0194 190.649 64.76C190.799 64.5444 190.948 64.3288 191.098 64.1132C192.013 61.8748 192.895 59.4541 193.844 57.398C195.891 53.0702 198.835 49.5208 202.86 46.7164C203.708 46.1854 204.373 45.6876 205.221 45.1566C205.887 44.6588 206.369 44.1943 207.001 43.5142C207.633 42.8341 208.448 42.1208 209.296 41.5897C210.144 41.0587 210.992 40.5276 211.841 39.9965C211.093 39.0026 210.162 38.0419 209.78 36.9813C209.215 35.954 209.016 34.8602 208.634 33.7996C207.62 33.4191 206.523 33.6188 205.575 33.603C203.863 33.538 202.333 33.4396 200.587 33.1923C198.443 32.8293 196.78 32.0017 195.018 30.6272C194.154 30.0312 193.44 29.2195 192.575 28.6234C191.861 27.8117 191.096 27.7626 189.998 27.9623C189.45 28.0622 188.901 28.162 188.203 28.4775C185.708 29.3081 183.148 29.7742 180.521 29.8756C179.573 29.8597 178.841 29.9929 177.927 30.1593C177.344 32.1488 177.792 33.574 179.155 34.8328Z" fill="#86B472"/>
</svg>
