<svg width="142" height="117" viewBox="0 0 142 117" fill="none" xmlns="http://www.w3.org/2000/svg">
<path d="M0.4023 12.9506C-0.321368 18.9803 0.161077 24.7688 1.60841 30.075C2.81453 34.6575 4.5031 38.5166 6.6741 41.8932C9.32755 45.9934 11.981 48.8876 15.1169 51.0583C15.5993 51.5407 16.323 51.7819 16.8054 52.0231C17.0467 52.2643 17.2879 52.2643 17.5291 52.5055L18.0116 52.7467C17.7703 52.9878 17.5291 53.229 17.2879 53.7114C15.3581 55.3997 14.152 57.5704 13.1871 59.7411C12.4634 61.4294 11.981 63.1177 11.4986 64.8061C10.7749 67.4591 10.7749 70.1122 11.7398 73.0065C12.9459 77.8302 15.5993 82.1716 19.4589 86.0306C22.5948 89.1661 26.4543 91.5779 31.2788 93.5075C35.1384 94.9546 39.4804 95.437 43.5812 94.4722C45.9934 93.9898 48.4056 93.2663 50.3354 92.3015C50.5766 92.3015 50.8178 92.0603 51.059 92.0603L51.3003 92.7839C51.5415 93.2663 51.5415 93.9898 51.7827 94.4722C52.0239 95.6782 52.2652 96.8841 52.7476 98.09C54.195 103.396 57.3308 107.738 61.6729 111.114C62.879 112.079 64.0851 113.044 65.5324 113.767C66.4973 114.25 67.221 114.491 68.1859 114.973C72.2866 116.42 76.8699 116.662 81.4531 115.456C84.8302 114.491 87.9661 112.561 90.8608 109.185C92.7905 106.773 94.4791 104.12 95.444 100.984C95.9265 99.5372 96.1677 98.5724 96.1677 97.3665C96.1677 96.8841 96.1677 96.1605 95.444 95.6782C95.2028 95.6782 94.9616 95.6782 94.7203 95.6782C94.2379 95.9193 93.9967 96.1605 93.7555 96.8841C93.7555 97.1253 93.5142 97.3665 93.5142 97.6077C93.5142 97.8488 93.273 97.8488 93.273 98.09C91.8257 101.708 89.8959 104.602 87.4837 107.255C80.7294 114.25 71.3217 113.044 65.5324 108.461C63.6026 107.014 61.6728 105.326 60.2255 102.914C59.2606 101.467 58.7782 100.02 58.2957 98.5724C57.572 96.6429 57.0896 94.231 56.6072 91.8191C56.6072 91.5779 56.6072 91.3368 56.6072 91.0956C56.6072 90.8544 56.6072 90.6132 56.6072 90.372C56.6072 89.6484 56.6072 89.4073 57.3308 88.6837C60.708 86.0306 63.1202 82.4128 64.8088 78.0714C65.2912 77.1067 65.5324 76.1419 65.7736 74.936C66.0149 74.2124 66.0149 73.4888 66.0149 72.7653C66.0149 72.5241 66.0149 72.2829 66.0149 71.8005C66.2561 71.5593 66.4973 71.5593 66.4973 71.3181C68.1859 70.3534 70.1157 69.871 72.0454 69.6298C75.1813 69.3886 78.076 69.6298 80.7294 70.3534C81.9355 70.5946 83.1416 71.077 84.3478 72.0417C84.1065 73.2476 84.3478 74.2124 84.589 74.936C84.589 75.1771 84.589 75.4183 84.589 75.4183C84.589 75.9007 84.589 76.1419 84.1066 76.3831C83.8653 76.3831 83.8653 76.6243 83.6241 76.6243C83.3829 76.8655 82.9004 76.8655 82.6592 77.1067C81.9355 77.589 81.4531 78.0714 81.4531 78.795C81.4531 79.5185 81.4531 80.0009 82.1768 80.7245C82.418 80.9657 82.9004 81.448 83.3829 81.6892C83.6241 81.9304 83.8653 81.9304 84.1066 81.6892C84.3478 81.6892 84.589 81.448 84.8302 80.9657V80.7245L84.3478 79.5185C84.589 79.2774 84.8302 79.2774 85.0714 79.0362C85.3127 79.0362 85.3127 79.0362 85.5539 78.795C87.4837 77.8302 88.2073 76.6243 87.9661 74.6948C87.9661 74.4536 87.9661 74.2124 87.9661 73.9712C87.9661 73.73 87.9661 73.4888 87.9661 73.2476C87.9661 73.2476 87.9661 73.2477 87.9661 73.0065H88.2073C88.4486 73.2477 88.6898 73.4888 88.931 73.73L89.1722 73.9712L89.4135 74.2124C89.6547 74.4536 89.6547 74.6948 89.8959 74.6948C90.1371 74.936 90.6195 75.1771 90.8608 74.936C91.102 74.6948 91.5844 74.4536 91.5844 73.9712C91.5844 72.7653 91.102 71.5593 90.3783 70.8358C89.4134 70.1122 88.4485 69.6298 87.2424 69.6298C87.0012 69.6298 86.76 69.6298 86.76 69.6298C86.5188 69.3886 86.2775 69.1475 86.2775 69.1475C85.7951 68.6651 85.3126 68.1827 84.8302 67.7003C83.1416 66.4944 81.2119 65.7708 78.5584 65.2884C74.4576 64.5649 70.5981 65.0472 66.7385 66.4944C66.4973 66.4944 66.4973 66.7356 66.2561 66.7356V66.4944C66.4973 66.4944 66.4973 66.2532 66.7385 66.2532C69.6332 65.5296 72.2866 64.0825 74.6989 61.9118L75.4225 61.4294C75.905 60.947 76.3874 60.7059 76.8699 60.2235C77.1111 59.9823 77.5935 59.7411 77.8348 59.2587C78.076 58.7763 78.5584 58.294 78.7996 58.0528C79.5233 56.8468 80.4882 55.6409 81.2119 54.435C82.9004 51.2995 85.3127 48.6465 88.2073 46.2346C93.0318 42.3756 98.8211 39.9637 105.334 38.9989C105.334 38.9989 105.334 38.9989 105.575 38.9989C103.887 41.652 102.198 44.0639 100.51 46.7169L99.0624 48.6465C98.3387 49.6112 97.8562 50.576 97.1326 51.5407C96.8913 52.0231 96.6501 52.5055 96.4089 52.9878C96.1677 53.229 96.4089 53.9526 96.6501 54.1938C96.8913 54.435 97.3738 54.6762 97.8562 54.435C98.3387 54.1938 98.8211 53.9526 99.0624 53.4702C101.233 51.0583 103.404 48.4053 105.334 45.511C106.54 43.8227 107.505 42.1344 108.711 40.2049L109.676 38.7577C109.676 38.7577 109.676 38.5165 109.917 38.5165C113.294 37.793 120.772 38.7577 123.908 40.2049C123.908 40.2049 123.908 40.2049 123.667 40.4461L121.255 42.6168C119.566 44.0639 117.878 45.7522 116.43 47.1993C115.948 47.6817 115.465 48.1641 114.983 48.6465L114.501 49.1288C114.259 49.37 114.018 49.6112 114.018 49.8524C114.018 50.0936 114.018 50.576 114.259 51.0583C114.501 51.2995 114.983 51.5407 115.465 51.2995C115.948 51.0583 116.43 50.8171 116.672 50.576L117.154 50.0936C118.601 48.8876 119.807 47.6817 121.255 46.4758C122.22 45.511 123.426 44.5462 124.391 43.5815C124.873 43.0991 125.597 42.3756 126.079 41.8932C126.32 41.652 126.562 41.4108 126.803 41.4108L127.044 41.1696C127.285 41.1696 127.285 41.1696 127.285 41.1696C131.386 43.0991 134.763 44.7874 137.658 46.9581C138.623 47.6817 139.588 48.4053 140.553 48.8876L141.276 49.37C141.518 49.6112 142 49.8524 142.482 49.8524C142.965 50.0936 143.689 49.8524 143.93 49.37C144.412 48.8876 144.412 48.1641 143.93 47.6817C143.689 47.4405 143.447 46.9581 143.206 46.7169C142.965 46.4758 142.482 46.2346 142.241 45.9934C141.276 45.2698 140.311 44.3051 139.347 43.5815C134.763 40.2049 129.698 37.793 124.149 36.1047C119.084 34.6575 114.018 34.1752 108.47 34.8987C103.163 35.6223 99.3036 36.5871 95.6852 38.0342C90.8608 40.2049 87.2424 42.1344 84.3478 44.7874C85.5539 37.3106 83.1417 30.7985 77.3523 24.7688C76.1462 23.8041 74.9401 22.5981 73.734 21.3922C73.0103 20.6686 72.0454 19.7039 71.3218 18.9803C70.5981 18.4979 70.1156 18.0156 69.392 17.5332C68.6683 17.0508 67.7034 16.5684 66.9797 16.3272L66.4973 16.0861C64.3263 14.8801 62.1553 14.3977 59.7431 14.6389C53.9537 15.1213 49.3705 16.5684 45.2697 19.4627C42.375 21.3922 39.9628 24.2864 38.2743 27.6631C38.2743 27.9043 38.033 27.9043 38.033 28.1455C38.033 27.9043 38.033 27.9043 38.033 27.6631C37.3094 22.5981 35.1384 17.7744 32.0025 13.1918C29.5902 10.0563 26.4544 7.40327 22.3536 4.99139C19.9413 3.54426 17.2879 2.33832 14.152 1.37357C11.981 0.650007 10.0512 0.408829 8.12145 0.650018C6.43289 0.891206 5.22678 1.85595 4.50311 3.30308C1.36722 7.16209 0.643522 9.81516 0.4023 12.9506ZM4.26188 17.292C3.53821 17.0508 3.05575 16.8096 2.81453 16.3272C2.81453 12.4682 3.5382 8.36803 4.74431 6.19733C8.60387 12.9506 12.2222 19.9451 15.8406 26.6983C18.0116 31.0397 20.1826 35.3811 22.5948 39.4813C24.2834 42.6167 25.4895 45.0286 26.4543 47.1993L20.1826 50.8171C14.8757 48.8876 9.08632 42.3756 7.15654 37.793C10.0512 38.5166 12.9459 38.7577 15.8406 38.7577C16.5642 38.7577 17.0467 38.7577 17.7704 38.9989C18.2528 38.9989 18.7352 38.9989 19.2177 38.9989C19.7001 38.9989 19.9414 38.5166 20.1826 38.0342C20.1826 37.5518 19.9414 37.0694 19.4589 37.0694C18.9765 36.8282 18.2528 36.8282 17.7704 36.8282C16.0818 36.5871 14.3932 36.3459 12.9459 36.1047C11.4986 35.8635 9.80999 35.6223 8.36265 35.3811C7.88021 35.3811 7.15655 35.1399 6.6741 35.1399H6.19166C4.50311 31.5221 2.81454 22.8393 3.05576 19.2215C5.22677 20.6686 7.63898 21.3922 10.0512 21.8746C10.2924 21.8746 10.7749 22.1158 11.2573 22.1158C11.4985 22.1158 11.981 21.8746 12.2222 21.6334C12.4635 21.3922 12.2222 20.6686 11.981 20.6686C11.4985 20.4274 11.0161 20.1863 10.5337 19.9451C9.81001 19.7039 8.84512 19.2215 8.12145 18.9803C6.43289 18.2567 5.46799 17.7744 4.26188 17.292ZM39.2391 32.0045C40.204 29.3514 42.1338 26.6983 44.546 24.7688C48.1644 21.8746 52.5064 20.4274 58.537 19.9451C59.7431 19.9451 60.708 19.9451 61.6729 20.4274C61.9141 20.4274 62.1553 20.6686 62.3965 20.6686L62.879 20.9098C64.0851 21.3922 65.2912 21.8746 66.2561 22.5981C66.9797 23.0805 67.7034 23.5629 68.4271 24.0453L68.9095 24.2864C69.1508 24.2864 69.1507 24.5276 69.392 24.7688C69.6332 25.01 69.6332 25.01 69.8744 25.2512C73.0103 27.6631 75.4225 30.5573 77.1111 33.934C79.5233 38.7577 80.0058 43.5815 78.5584 48.4053C77.1111 52.9878 74.4576 56.8469 71.0805 59.9823C69.1507 61.6706 67.221 62.8766 64.8088 63.6001H64.5675C64.0851 63.8413 63.8438 63.8413 63.3614 63.8413C63.3614 63.6001 63.1202 63.3589 63.1202 63.1177C61.6728 60.2235 59.9843 58.0528 57.8133 56.3645C56.1247 55.1585 54.9186 53.7114 53.2301 52.0231C52.9888 51.5407 52.5064 51.2995 52.2652 50.8171L52.024 50.576C49.3705 47.6817 45.9934 45.9934 42.375 45.511C41.4102 45.511 40.6865 45.511 39.7216 45.2698H38.7567C38.5155 45.2698 38.033 45.2698 37.7918 45.2698H37.5506C37.5506 45.0286 37.5506 45.0286 37.5506 44.7874C37.3094 39.9637 38.033 35.6223 39.2391 32.0045ZM59.2606 78.5538C58.7782 79.2773 58.2957 80.2421 57.8133 80.9657C55.8835 84.1011 53.7125 86.0306 51.5415 87.2366C47.682 89.4073 43.5812 90.6132 39.4804 90.8544C37.7918 90.8544 36.1033 90.8544 34.6559 90.372C29.1078 88.6837 24.7658 86.0306 21.6299 82.4128C18.7352 79.2774 17.0467 75.9007 16.0818 72.0417C15.5993 69.871 15.5993 68.1827 15.8406 66.4944C17.0467 61.1882 19.7001 57.088 24.0421 54.435C26.2131 52.9878 28.3841 52.0231 30.7964 51.0583C34.4147 49.8524 38.033 49.37 42.1338 49.6112C44.546 49.8524 46.7171 50.576 48.4056 52.0231C48.8881 52.5055 49.3705 52.7466 49.8529 53.229L50.0942 53.4702L49.8529 54.435C49.8529 54.6762 49.8529 54.6762 50.0942 54.9174L50.5766 55.3997C51.059 55.6409 51.5415 56.1233 51.7827 56.3645C53.23 57.3292 54.4362 58.5352 55.6423 60.4647C55.8835 60.947 56.1247 61.4294 56.366 61.6706C56.6072 62.153 56.8484 62.3942 57.0896 62.8765C57.0896 63.1177 57.3308 63.3589 57.3308 63.3589C57.8133 64.0825 58.0545 64.5649 58.7782 65.0472C59.2606 65.5296 59.5018 65.7708 59.5018 66.2532C61.4316 70.8358 61.1904 74.6948 59.2606 78.5538ZM29.5902 40.6872C29.8315 40.2049 30.3139 39.9637 30.5551 39.4813C31.0376 38.7577 31.2788 37.793 31.7612 37.0694C32.0025 36.3459 32.4849 35.6223 32.7261 34.8987C32.9674 37.3106 33.4498 43.8227 33.2086 45.511L28.1429 46.9581C28.1429 46.7169 27.9017 46.717 27.9017 46.4758C27.6605 45.9934 27.4192 45.511 27.178 45.0286C26.9368 44.3051 26.4544 43.3403 26.2131 42.6168C25.007 39.9637 23.5597 37.0694 22.3536 34.4164L19.9413 29.5926C17.5291 24.2865 15.3581 20.1863 12.9459 16.0861C11.2573 13.433 9.80999 10.7799 8.36265 7.88566L7.39778 6.43854C7.39778 6.19735 7.15654 6.19734 7.15654 5.95615C7.63898 5.95615 8.12143 6.19733 8.36265 6.19733C13.9108 7.16209 18.9765 9.81517 23.8009 13.9154C24.2834 14.3977 24.5246 14.8801 24.2834 15.3625C24.0421 15.8449 24.0421 16.3272 23.8009 16.8096C23.8009 17.292 23.5597 17.5332 23.5597 18.0156C22.836 21.3922 22.1124 24.2865 21.8711 26.9395C21.8711 27.6631 21.8711 28.3866 21.8711 28.869C21.8711 29.3514 22.3536 29.5926 22.5948 29.5926C22.836 29.5926 23.3185 29.3514 23.5597 29.1102C23.8009 28.6278 24.0421 28.1455 24.0421 27.4219C25.007 23.8041 25.4895 20.1863 26.2131 16.5684C29.1078 20.4274 31.0376 25.01 31.7612 30.075C31.7612 30.5573 31.7613 30.7985 31.52 31.2809C30.5551 32.9692 29.8315 34.8987 28.8666 36.5871C28.6253 37.3106 28.3841 38.0342 27.9017 38.5165C27.6605 38.7577 27.6605 39.2401 27.6605 39.7225C27.6605 39.9637 27.9017 40.4461 28.1429 40.6872C28.8666 40.9284 29.349 40.9284 29.5902 40.6872Z" fill="#C2D6BF"/>
</svg>
