<svg width="60" height="53" viewBox="0 0 60 53" fill="none" xmlns="http://www.w3.org/2000/svg">
<path d="M45.6717 51.0211C39.5857 52.8821 34.182 53.3006 28.6957 52.2272C21.8296 50.84 15.8286 47.9769 11.1088 42.8088C7.8182 39.264 4.86023 35.4704 2.75041 31.1457C1.58745 28.9088 0.940021 26.3898 0.874486 23.9532C0.84213 21.6989 1.05904 19.776 2.43973 18.0179C2.73917 17.5867 3.00544 16.9732 3.2717 16.3597C3.73787 14.7681 4.23722 13.3588 4.52049 11.8004C5.13638 9.9932 6.18444 8.48402 7.48177 7.30617C9.44434 5.63055 11.6562 4.28626 14.1173 3.27329C19.6214 1.32981 25.3246 0.48018 31.26 0.906712C34.1031 0.954313 36.7131 1.79773 39.1734 2.85674C43.6949 4.85902 47.8005 7.69041 51.0911 11.2352C56.4592 16.8503 59.732 23.4119 59.8452 31.3019C59.9253 39.0096 56.4647 44.9131 50.0452 49.095C48.4986 49.9415 46.7028 50.4567 45.6717 51.0211ZM3.76775 23.2383C3.85029 24.73 4.14891 26.3708 4.74698 27.5804C7.62077 34.0262 11.9748 39.2609 17.809 43.2844C18.6734 43.8805 19.7206 44.4433 20.7347 44.8238C27.9658 48.2164 35.2981 48.012 42.6644 45.918C45.8903 44.9542 48.5845 43.1454 50.963 40.6407C52.6763 38.6337 53.9575 36.3287 54.4407 33.7923C54.9077 30.1287 54.643 26.5983 53.0649 23.1185C50.4072 16.8217 45.604 12.2338 39.5367 9.00608C36.395 7.3177 33.2031 6.39184 29.8113 6.44411C25.0728 6.36477 20.4671 7.01467 15.994 8.3938C14.1982 8.90899 12.6516 9.75552 11.105 10.602C9.40869 11.6642 7.81192 13.2732 7.19602 15.0804C6.72985 16.672 6.04761 18.1146 5.61461 19.8886C5.29817 21.2646 5.13144 22.425 3.76775 23.2383Z" fill="#86B472"/>
</svg>
