<svg width="115" height="114" viewBox="0 0 115 114" fill="none" xmlns="http://www.w3.org/2000/svg">
<path d="M111.185 36.2101C113.957 46.2275 115.148 56.5908 114.232 67.1224C113.129 80.8138 107.295 92.031 96.732 100.774C95.5882 101.56 94.4444 102.346 93.4749 103.484C85.5539 109.602 76.8537 112.821 66.9337 113.577C57.0138 114.333 47.1002 113.334 37.3673 110.93C33.86 110.041 30.2672 108.536 26.9374 107.12C20.5407 104.377 15.0248 100.758 9.33465 96.7884C6.27098 94.5832 3.38475 91.8519 1.6423 88.3343C0.856605 87.1904 0.685555 85.9608 1.39212 84.7341C1.48085 84.471 1.83254 84.2967 1.65829 83.9449C0.704741 80.6934 2.90678 78.5062 4.75713 76.4933C9.42737 71.3297 13.8346 66.0774 18.7678 61.0024C26.2548 53.5659 33.916 46.4811 41.3142 39.3076C51.1774 30.0356 60.9519 21.0266 70.8151 11.7546C74.3383 8.25502 78.5618 5.28458 82.4335 2.48853C85.9536 -0.133137 88.3235 -0.212836 92.2616 2.87324C94.1879 4.10887 95.585 6.04503 97.0709 7.7181C103.094 16.781 108.15 26.1039 111.185 36.2101ZM86.1814 9.61229C84.6859 10.5729 83.8051 11.4478 83.0098 12.9375C83.6181 14.6075 84.578 16.1033 84.9233 17.6847C86.8272 25.0655 88.2052 32.2689 88.8798 39.8211C89.13 43.4213 87.8911 46.2264 84.2 47.6184C84.2 47.6184 84.0225 48.1445 83.6708 48.3189C84.8969 49.0254 86.2118 49.4688 87.4379 50.1753C89.8901 51.5884 92.0793 52.9127 93.6507 55.2006C95.3109 57.2254 95.9159 59.7734 95.0287 62.404C94.4964 63.9824 94.0528 65.2977 93.2575 66.7874C91.3088 71.697 87.7856 75.1966 82.9507 77.3748C79.8742 78.6811 76.4492 79.284 73.0307 78.1311C72.5048 77.9537 71.7159 77.6876 70.664 77.3329C71.0093 78.9143 71.4433 80.2326 71.6144 81.4622C71.6967 82.9549 72.042 84.5363 72.1243 86.029C71.6711 89.978 69.732 92.2539 65.9586 92.1532C60.9559 92.2239 55.8676 91.6798 50.868 90.8727C47.272 90.2459 45.086 88.0437 43.7808 84.9666C43.4323 84.2631 43.0838 83.5596 42.9127 82.3299C42.1174 83.8196 41.4109 85.0463 40.793 86.0099C39.3799 88.4631 37.5327 89.5981 34.6369 89.5004C30.9522 89.1367 27.0932 88.4212 23.4117 87.1796C19.7302 85.9379 16.5778 83.9958 14.132 80.8271C13.3463 79.6831 12.2089 78.7135 11.1602 77.4809C9.57604 78.7046 8.25481 80.0169 6.93359 81.3292C6.40446 82.0297 5.70108 82.3785 5.17195 83.079C12.6141 87.9328 20.7629 91.56 28.2146 93.7802C31.9849 94.7588 35.6664 96.0004 39.1737 96.8902C42.0663 97.8658 44.7847 98.4896 48.0322 98.4129C50.928 98.5106 54.0868 98.6969 56.8084 98.4428C61.0222 98.1061 65.4103 98.121 69.3644 96.8177C76.3949 94.208 82.6397 90.4544 88.5361 85.9973C92.4966 82.9381 95.5826 78.9981 97.0053 73.9112C98.7862 66.8941 99.8668 59.3479 98.8405 51.9701C97.6464 42.4847 95.4859 33.2594 92.7108 24.1198C92.451 23.1533 92.1025 22.4498 91.754 21.7463C90.9715 19.7244 89.8373 17.877 88.9661 16.1182C87.9206 14.0077 87.1381 11.9859 86.1814 9.61229ZM67.4669 87.6811C68.617 85.1392 68.2749 82.6799 67.6699 80.1319C66.8082 75.7395 64.8915 71.8702 62.9749 68.0009C60.7097 63.4281 57.8298 58.941 55.6534 54.1052C54.2594 51.2911 52.9542 48.2141 51.9119 45.2257C51.8264 44.6109 51.8296 43.733 52.27 43.2955C53.0621 42.6837 53.7623 43.2128 54.4624 43.742C56.7372 45.6811 57.9569 48.1434 59.1766 50.6056C62.576 57.0259 65.7124 63.3574 69.8152 69.4289C70.4266 70.2211 71.0381 71.0133 71.6495 71.8055C73.4839 74.1821 75.5876 74.8916 78.4866 74.1114C80.1563 73.5025 81.8261 72.8937 83.2328 72.1962C87.2788 69.7519 89.1356 65.9833 90.8181 61.8629C91.3504 60.2845 91.1793 59.0549 90.0419 58.0853C88.1188 55.9718 85.7554 54.2957 83.2144 53.1458C74.3655 48.9895 65.7796 44.9218 56.487 42.0809C55.1722 41.6374 53.8574 41.194 52.5426 40.7505C50.7841 41.6224 49.7259 43.0235 49.8937 45.131C50.0648 46.3606 49.6212 47.676 49.5292 48.8169C48.7971 57.0666 47.802 65.2277 47.0698 73.4774C46.9747 75.4962 46.7909 77.7781 46.6958 79.7969C46.8508 85.416 48.7739 87.5295 54.1252 88.1623C56.9323 88.5231 59.8281 88.6207 62.6352 88.9815C64.1274 88.8988 65.7084 88.553 67.4669 87.6811ZM23.6427 96.0471C23.554 96.3102 23.4653 96.5732 23.1136 96.7476C28.281 99.6623 33.4484 102.577 39.1481 103.913C48.3551 106.139 57.917 107.313 67.3997 106.117C71.3506 105.691 75.1272 104.914 78.9071 103.259C85.7634 100.297 91.4823 96.3665 96.7672 91.1172C103.725 84.3811 108.319 75.969 109.584 66.1409C111.222 49.9932 108.029 35.1459 99.83 21.2471C99.4815 20.5436 99.0443 20.1032 98.2586 18.9592C98.1667 20.1002 98.3409 20.4519 98.2522 20.715C100.334 27.5697 101.186 34.5957 102.652 41.5361C104.208 48.2134 104.271 54.9735 102.842 61.8162C101.859 66.4657 101.14 71.2039 99.1946 75.2355C96.3619 81.8979 91.8659 87.4133 85.3581 91.0782C83.1593 92.3876 81.2234 93.7855 78.7616 95.0062C74.1009 97.5362 69.529 99.8031 64.2601 100.663C59.3429 101.349 54.6031 101.508 49.8633 101.667C44.8606 101.738 40.387 101.108 35.6536 99.5119C31.9721 98.2703 27.9389 97.203 23.6427 96.0471ZM35.7967 84.3248C36.5032 83.0982 37.1211 82.1346 37.8277 80.908C39.0666 78.1029 40.2167 75.5609 40.9297 72.5785C43.0654 64.5092 44.8494 56.6142 45.8445 48.4532C46.022 47.9271 46.0252 47.0491 45.8541 45.8195C41.6307 48.7899 38.4591 52.1151 34.8503 54.9999C31.1528 58.1477 27.7183 61.3842 24.0208 64.532C20.5862 67.7685 16.9774 70.6532 14.0688 74.067C19.2234 80.4933 24.1279 83.3193 35.7967 84.3248ZM55.6254 37.6884C56.9402 38.1319 58.0808 38.2236 59.3069 38.9301C65.089 41.7591 71.2291 42.6579 77.5467 43.0307C78.9502 43.211 80.4425 43.1283 81.846 43.3087C83.6013 43.3147 84.1304 42.6142 84.1368 40.8584C84.2319 38.8396 83.9754 36.9951 83.8075 34.8876C83.212 29.706 82.3536 24.4357 80.7918 19.5141C80.532 18.5475 79.9206 17.7554 79.5721 17.0518C76.0552 18.7956 58.0936 34.712 55.6254 37.6884Z" fill="#85B472"/>
</svg>
