<svg width="120" height="77" viewBox="0 0 120 77" fill="none" xmlns="http://www.w3.org/2000/svg">
<path d="M110.454 26.4736C110.637 26.4403 111.003 26.3737 111.036 26.556C112 27.699 112.93 28.6597 113.528 29.8693C115.439 33.1001 117.2 36.5466 118.412 40.0929C119.625 43.6392 119.091 46.9382 116.995 49.9565C116.696 50.3877 116.247 51.0345 115.764 51.499C113.569 53.9704 111.988 56.7066 110.657 59.7742C109.741 62.0126 108.427 64.1352 106.647 65.7776C105.832 66.4909 104.868 67.4199 103.803 67.8019C101.193 69.0305 98.5818 70.2591 96.1539 71.4543C94.2415 72.3674 92.1794 73.4961 90.267 74.4092C87.5064 75.8534 84.58 76.386 81.2716 75.858C78.545 75.4125 75.519 75.3982 72.8257 75.135C71.479 75.0034 70.3484 75.0209 69.0017 74.8893C66.3083 74.6261 63.8812 73.7493 61.7204 72.2591C58.0138 69.5435 54.1575 67.0434 50.3012 64.5434C47.0599 62.3081 43.9684 59.8572 41.1763 56.9751C39.0988 54.9046 36.8717 53.0498 34.345 51.6262C33.6968 51.1791 33.0817 50.9144 32.4334 50.4673C28.2777 48.3985 24.754 45.6495 21.1971 42.7183C19.4021 41.1615 17.8232 39.7537 16.3608 37.9481C12.6882 33.3427 9.19848 28.7041 5.70879 24.0655C4.71174 22.7402 3.86441 21.1993 2.83418 19.6917C1.1727 16.7922 0.392544 13.5439 0.526913 10.1292C0.677461 7.84161 0.79483 5.37173 0.945378 3.08416C1.02874 2.50395 1.11211 1.92373 1.22865 1.52583C1.37837 1.31023 1.711 1.06134 2.22653 0.779169C2.32607 1.3261 2.54215 1.47512 2.60851 1.83973C2.9063 5.55249 3.23728 9.44754 3.53508 13.1603C3.70016 16.1438 4.92948 18.7453 6.49142 21.0979C8.51871 23.9308 10.7289 26.7305 12.7562 29.5634C14.2849 31.7337 15.9634 33.6884 17.6419 35.6431C19.1375 37.631 20.7828 39.4034 22.7607 40.9269L22.9768 41.0759C26.5668 44.1895 30.4564 46.8719 34.4956 49.3386C37.6705 51.2093 40.3298 53.3622 42.7229 56.1286C45.2989 58.8616 48.2075 61.3458 51.4156 63.3988C55.089 65.9322 58.7956 68.6478 62.2861 71.2144C64.9123 73.185 67.5555 74.2107 70.7644 74.1917C73.4245 74.2726 76.0847 74.3535 78.7781 74.6167C79.7258 74.6326 80.7067 74.8308 81.6875 75.0289C84.6634 75.8058 87.5566 75.0909 90.1343 73.68C92.529 72.3024 94.9569 71.1071 97.5346 69.6963C100.811 67.9699 104.054 66.0613 106.366 63.192C107.297 62.0807 108.196 60.7871 108.911 59.5268C110.392 56.2437 112.272 53.0763 115.017 50.505C115.349 50.2561 115.466 49.8582 115.798 49.6093C118.327 46.889 118.86 43.59 117.681 40.226C116.269 35.5859 114.126 31.0789 111.135 27.1029C110.736 26.9872 110.487 26.6559 110.454 26.4736C110.454 26.4736 110.421 26.2913 110.454 26.4736Z" fill="#86B472"/>
</svg>
